# xmcd
#
# Track frame offsets: 
#        150
#        40540
#        43894
#        67733
#        70906
#        96179
#        139367
#        169334
#        206221
#        211134
#
# Disc length: 3343 seconds
#
# Revision: 0
# Processed by: cddbd v1.5.2PL0 Copyright (c) Steve Scherf et al.
# Submitted via: ExactAudioCopy v0.95b3
#
DISCID=940d0d0a
DTITLE=Va  - Monterey Jazz Festival 50th A A Stars  FLAC
DYEAR=1900
DGENRE=
TTITLE0=Terence Blanchard, Nnenna Freelon, Benny Green, James Moody, D
TTITLE0=errick Hodge, K... - Be-Bop
TTITLE1=Terence Blanchard, Nnenna Freelon, Benny Green, James Moody, D
TTITLE1=errick Hodge, K... - Spoken Introduction to Romance
TTITLE2=Terence Blanchard, Nnenna Freelon, Benny Green, James Moody, D
TTITLE2=errick Hodge, K... - Romance (Winter Love)
TTITLE3=Terence Blanchard, Nnenna Freelon, Benny Green, James Moody, D
TTITLE3=errick Hodge, K... - Spoken Introduction to Just Squeeze Me
TTITLE4=Terence Blanchard, Nnenna Freelon, Benny Green, James Moody, D
TTITLE4=errick Hodge, K... - Just Squeeze Me (But Don't Tease Me)
TTITLE5=Terence Blanchard, Nnenna Freelon, Benny Green, James Moody, D
TTITLE5=errick Hodge, K... - Monterey Mist
TTITLE6=Terence Blanchard, Nnenna Freelon, Benny Green, James Moody, D
TTITLE6=errick Hodge, K... - Misty
TTITLE7=Terence Blanchard, Nnenna Freelon, Benny Green, James Moody, D
TTITLE7=errick Hodge, K... - Benny's Tune
TTITLE8=Terence Blanchard, Nnenna Freelon, Benny Green, James Moody, D
TTITLE8=errick Hodge, K... - Band Introductions
TTITLE9=Terence Blanchard, Nnenna Freelon, Benny Green, James Moody, D
TTITLE9=errick Hodge, K... - Time After Time
EXTD=
EXTT0=
EXTT1=
EXTT2=
EXTT3=
EXTT4=
EXTT5=
EXTT6=
EXTT7=
EXTT8=
EXTT9=
PLAYORDER=
